<?xml version="1.0" encoding="UTF-8" standalone="no"?>
<!-- Created with Inkscape (http://www.inkscape.org/) -->
<svg
   xmlns:svg="http://www.w3.org/2000/svg"
   xmlns="http://www.w3.org/2000/svg"
   xmlns:inkscape="http://www.inkscape.org/namespaces/inkscape"
   version="1.0"
   width="88"
   height="88"
   id="svg2">
  <defs
     id="defs4">
    <inkscape:perspective
       id="perspective10" />
    <clipPath
       id="clipPath2437">
      <path
         d="M 0,0 L 85,0 L 85,100 L 0,100 L 0,0 z"
         id="path2439" />
    </clipPath>
    <clipPath
       id="clipPath2427">
      <path
         d="M 281.5,328 L 366.5,328 L 366.5,428 L 281.5,428 L 281.5,328 z"
         id="path2429" />
    </clipPath>
    <inkscape:perspective
       id="perspective2415" />
  </defs>
  <g
     id="layer1">
    <g
       transform="matrix(0.6055406,0,0,-0.6055406,-170.45968,261.61732)"
       id="g2417">
      <g
         id="g2419" />
      <g
         id="g2421" />
      <g
         id="g2423">
        <g
           clip-path="url(#clipPath2427)"
           id="g2425">
          <g
             transform="translate(281.5,328)"
             id="g2431">
            <g
               id="g2433">
              <g
                 clip-path="url(#clipPath2437)"
                 id="g2435">
                <g
                   id="g2441" />
                <g
                   id="g2443">
                  <path
                     d="M 28.129,20.636 L 35.005,20.636 C 32.522,21.327 30.349,22.309 28.746,23.304 L 28.129,20.636"
                     id="path2445"
                     style="fill:#fab93e;fill-opacity:1;fill-rule:nonzero;stroke:none" />
                  <path
                     d="M 48.758,66.26801 C 44.216,66.26801 40.115,63.764 37.437,60.926 L 31.205,33.947 C 34.148,31.893 36.23,31.888 38.13,31.888 C 53.402,31.888 58.135,44.327 58.135,55.329 C 58.135,62.284 53.937,66.26801 48.758,66.26801"
                     id="path2447"
                     style="fill:#fab93e;fill-opacity:1;fill-rule:nonzero;stroke:none" />
                  <path
                     d="M 83.762,99.08501 L 46.256,99.08501 L 39.719,70.79501 C 45.473,75.04401 53.486,78.77 58.445,78.77 C 71.246,78.77 76.57201,71.938 76.57201,59.079 C 76.57201,47.351 70.842,25.39 50.092,20.636 L 83.762,20.636 L 83.762,99.08501"
                     id="path2449"
                     style="fill:#fab93e;fill-opacity:1;fill-rule:nonzero;stroke:none" />
                  <path
                     d="M 41.567,19.698 C 44.662,19.698 47.488,20.039 50.092,20.636 L 35.005,20.636 C 37.027,20.072 39.25,19.698 41.567,19.698"
                     id="path2451"
                     style="fill:#ffffff;fill-opacity:1;fill-rule:nonzero;stroke:none" />
                  <path
                     d="M 38.13,31.888 C 36.231,31.888 34.148,31.893 31.206,33.947 L 37.437,60.926 C 40.115,63.764 44.216,66.26801 48.758,66.26801 C 53.937,66.26801 58.135,62.284 58.135,55.329 C 58.135,44.327 53.402,31.888 38.13,31.888 z M 58.445,78.77 C 53.486,78.77 45.473,75.04401 39.719,70.79501 L 46.256,99.08501 L 28.129,99.08501 L 10.002,20.636 L 28.129,20.636 L 28.746,23.304 C 31.654,21.498 36.407,19.698 41.567,19.698 C 69.331,19.698 76.57201,45.879 76.57201,59.079 C 76.57201,71.938 71.246,78.77 58.445,78.77"
                     id="path2453"
                     style="fill:#ffffff;fill-opacity:1;fill-rule:nonzero;stroke:none" />
                  <path
                     d="M 0,99.08501 L 0,20.636 L 10.002,20.636 L 28.129,99.08501 L 0,99.08501"
                     id="path2455"
                     style="fill:#3988c2;fill-opacity:1;fill-rule:nonzero;stroke:none" />
                  <path
                     d="M 0.09100001,0.406 L 10.001,0.406 C 11.682,0.406 12.863,0.546 13.844,0.887 C 15.365,1.406 16.205,2.666 16.205,4.388 C 16.205,5.55 15.845,6.39 15.085,6.929 C 14.544,7.329 14.164,7.469 13.023,7.688 C 14.784,8.268001 15.525,9.105 15.525,10.579 C 15.525,11.379 15.245,12.179 14.784,12.679 C 14.044,13.479 13.123,13.719 10.721,13.719 L 0.09100001,13.719 L 0.09100001,0.406 z M 4.903,8.687 L 4.903,10.719 L 9.261001,10.719 C 10.401,10.719 10.781,10.46 10.781,9.684 C 10.781,8.946 10.381,8.687 9.261001,8.687 L 4.903,8.687 z M 4.903,3.406 L 4.903,5.75 L 9.861,5.75 C 10.981,5.75 11.461,5.409 11.461,4.567 C 11.461,3.746 10.981,3.406 9.861,3.406 L 4.903,3.406"
                     id="path2457"
                     style="fill:#211c1c;fill-opacity:1;fill-rule:nonzero;stroke:none" />
                  <path
                     d="M 30.355,2.531 L 31.115,0.409 L 36.255,0.409 L 30.515,13.716 L 25.115,13.716 L 19.235,0.409 L 24.375,0.409 L 25.135,2.531 L 30.355,2.531 z M 29.355,5.531 L 26.215,5.531 L 27.775,10.014 L 29.355,5.531"
                     id="path2459"
                     style="fill:#211c1c;fill-opacity:1;fill-rule:nonzero;stroke:none" />
                  <path
                     d="M 48.739,10.008 C 48.419,10.949 47.838,11.25 46.457,11.25 C 45.035,11.25 44.234,10.869 44.234,10.168 C 44.234,9.587001 44.635,9.346001 46.036,9.046 L 49.797,8.265 C 51.15,7.983 52.066,7.603 52.664,7.062 C 53.281,6.521 53.64,5.62 53.64,4.658 C 53.64,3.115 52.764,1.686 51.39,1.012 C 50.036,0.357 48.139,0 46.076,0 C 44.174,0 42.434,0.317 41.294,0.853 C 40.694,1.13 40.174,1.586 39.754,2.182 C 39.314,2.854 39.174,3.236 39.014,4.258 L 43.773,4.418 C 43.994,3.416 44.975,2.875 46.557,2.875 C 48.099,2.875 49.02,3.416 49.02,4.297 C 49.02,4.879 48.499,5.259 47.478,5.439 L 43.773,6.101 C 40.974,6.621 39.614,7.844 39.614,9.847 C 39.614,12.564 42.154,14.156 46.477,14.156 C 50.792,14.156 52.883,12.982 53.341,10.348 L 48.739,10.008"
                     id="path2461"
                     style="fill:#211c1c;fill-opacity:1;fill-rule:nonzero;stroke:none" />
                  <path
                     d="M 58.13,13.716 L 62.942,13.716 L 62.942,0.409 L 58.13,0.409 L 58.13,13.716 z"
                     id="path2463"
                     style="fill:#211c1c;fill-opacity:1;fill-rule:nonzero;stroke:none" />
                  <path
                     d="M 79.771,9.139001 C 79.312,10.457 78.131,11.156 76.411,11.156 C 73.951,11.156 72.35201,9.538 72.35201,7.062 C 72.35201,4.546 73.931,2.969 76.451,2.969 C 78.17101,2.969 79.271,3.648 79.99,5.145 L 84.371,4.526 C 83.871,3.068 83.511,2.491 82.591,1.773 C 81.111,0.578 79.03101,0 76.312,0 C 70.815,0 67.444,2.67 67.444,7.042 C 67.444,9.259001 68.362,11.196 69.957,12.416 C 71.553,13.616 73.511,14.156 76.291,14.156 C 80.771,14.156 83.39101,12.736 84.231,9.838 L 79.771,9.139001"
                     id="path2465"
                     style="fill:#211c1c;fill-opacity:1;fill-rule:nonzero;stroke:none" />
                </g>
              </g>
            </g>
          </g>
        </g>
      </g>
    </g>
  </g>
</svg>
