<?xml version="1.0" encoding="UTF-8" standalone="no"?>
<!-- Created with Inkscape (http://www.inkscape.org/) -->
<svg
   xmlns:dc="http://purl.org/dc/elements/1.1/"
   xmlns:cc="http://creativecommons.org/ns#"
   xmlns:rdf="http://www.w3.org/1999/02/22-rdf-syntax-ns#"
   xmlns:svg="http://www.w3.org/2000/svg"
   xmlns="http://www.w3.org/2000/svg"
   xmlns:sodipodi="http://sodipodi.sourceforge.net/DTD/sodipodi-0.dtd"
   xmlns:inkscape="http://www.inkscape.org/namespaces/inkscape"
   version="1.0"
   width="110"
   height="110"
   viewBox="0 0 110 110"
   id="svg2638"
   sodipodi:version="0.32"
   inkscape:version="0.46+devel"
   sodipodi:docname="LauncherIcon.svg"
   inkscape:output_extension="org.inkscape.output.svg.inkscape"><metadata
   id="metadata2661">
  <rdf:RDF>
    <cc:Work
       rdf:about="">
      <dc:format>image/svg+xml</dc:format>
      <dc:type
         rdf:resource="http://purl.org/dc/dcmitype/StillImage" />
    </cc:Work>
  </rdf:RDF>
</metadata>
<sodipodi:namedview
   inkscape:window-height="1109"
   inkscape:window-width="1429"
   inkscape:pageshadow="2"
   inkscape:pageopacity="0.0"
   guidetolerance="10.0"
   gridtolerance="10.0"
   objecttolerance="10.0"
   borderopacity="1.0"
   bordercolor="#666666"
   pagecolor="#ffffff"
   id="base"
   showgrid="false"
   inkscape:zoom="7.5560029"
   inkscape:cx="59.41831"
   inkscape:cy="54.996551"
   inkscape:window-x="0"
   inkscape:window-y="22"
   inkscape:current-layer="svg2638" />

   id=&quot;svg2&quot;&gt;
  <defs
   id="defs4">
  <inkscape:perspective
     sodipodi:type="inkscape:persp3d"
     inkscape:vp_x="0 : 55 : 1"
     inkscape:vp_y="0 : 1000 : 0"
     inkscape:vp_z="110 : 55 : 1"
     inkscape:persp3d-origin="55 : 36.666667 : 1"
     id="perspective2663" />
</defs>
<g
   transform="translate(2.622e-4,-942.31433)"
   id="layer1">
  <path
     d="M 8.4,990.96218 L 8.4,990.96218 z"
     id="path2613"
     style="fill:none;stroke:#000000;stroke-width:1px;stroke-linecap:butt;stroke-linejoin:miter;stroke-opacity:1" />
  <path
     d="M 10.17039,1052.2955 L 34.937762,942.428 L 0.0622378,942.425 L 0.26040377,942.425 L 0.25921077,1052.2998 L 10.17039,1052.2998 L 10.17039,1052.2955 z"
     id="path2623"
     style="fill:none;stroke:#000000;stroke-width:0.10549579;stroke-linecap:butt;stroke-linejoin:miter;stroke-miterlimit:4;stroke-dasharray:none;stroke-opacity:1" />
  <path
     d="M 73.248184,1052.5622 L 109.89036,1052.4418"
     id="path3397"
     style="fill:none;stroke:#000000;stroke-width:0.1;stroke-linecap:butt;stroke-linejoin:miter;stroke-miterlimit:4;stroke-dasharray:none;stroke-opacity:1" />
  <path
     d="M 52.104713,981.16374 L 61.436671,942.37683 L 109.83282,942.43263 L 109.85732,1038.2548 L 109.84062,1052.0302 L 109.84462,1052.4867"
     id="path3399"
     style="fill:none;stroke:#000000;stroke-width:0.09199466;stroke-linecap:butt;stroke-linejoin:miter;stroke-miterlimit:4;stroke-dasharray:none;stroke-opacity:1" />
  <path
     d="M 49.2,993.36218 L 40.5514,1031.7566"
     id="path3403"
     style="fill:none;stroke:#000000;stroke-width:0.1;stroke-linecap:butt;stroke-linejoin:miter;stroke-miterlimit:4;stroke-dasharray:none;stroke-opacity:1" />
  <path
     d="M 37.442577,1047.4642 L 36.5,1051.8622"
     id="path3405"
     style="fill:none;stroke:#000000;stroke-width:0.1;stroke-linecap:butt;stroke-linejoin:miter;stroke-miterlimit:4;stroke-dasharray:none;stroke-opacity:1" />
  <path
     d="M 49.19158,993.35664 C 56.19158,987.95664 64.9514,987.14327 64.9514,987.14327 C 64.9514,987.14327 86.947948,983.97591 88,1009.9622 C 88.63317,1025.6019 72.856191,1046.4252 54.8,1040.5622 C 41.69003,1036.3053 40.55373,1031.6618 40.55373,1031.6618"
     id="path3433"
     style="fill:none;stroke:#000000;stroke-width:0.1;stroke-linecap:butt;stroke-linejoin:miter;stroke-miterlimit:4;stroke-dasharray:none;stroke-opacity:1" />
  <path
     d="M 52.029675,981.23788 C 69.829675,972.63788 83.427378,966.34219 96,976.76218 C 109.99169,988.35827 110.31326,1012.8086 99.6,1031.3622 C 91.902546,1044.6929 73.2,1052.5622 73.2,1052.5622"
     id="path3437"
     style="fill:none;stroke:#000000;stroke-width:0.1;stroke-linecap:butt;stroke-linejoin:miter;stroke-miterlimit:4;stroke-dasharray:none;stroke-opacity:1" />
  <path
     d="M 37.4,1047.4609 C 45,1052.0609 45,1051.8609 45,1051.8609 L 36.513866,1051.8609"
     id="path3439"
     style="fill:none;stroke:#000000;stroke-width:0.1;stroke-linecap:butt;stroke-linejoin:miter;stroke-miterlimit:4;stroke-dasharray:none;stroke-opacity:1" />
  <path
     d="M 0.40115508,997.23392 L 0.40115508,942.55913 L 17.521737,942.55913 C 33.623023,942.55913 34.631852,942.60153 34.466515,943.27051 C 34.369825,943.66177 28.822087,968.26543 22.138212,997.9453 L 9.985714,1051.9087 L 5.1934347,1051.9087 L 0.40115508,1051.9087 L 0.40115508,997.23392 L 0.40115508,997.23392 z"
     id="path3465"
     style="fill:#124662;fill-opacity:1;stroke-width:0.1;stroke-miterlimit:4;stroke-dasharray:none" />
  <path
     d="M 0.40115508,997.17834 L 0.40115508,942.44795 L 17.169448,942.74651 C 26.392009,942.91071 34.005846,943.11054 34.089086,943.19057 C 34.214318,943.31097 10.555889,1048.9647 9.9037498,1051.1973 C 9.7215124,1051.8212 9.1244969,1051.9087 5.0485583,1051.9087 L 0.40115508,1051.9087 L 0.40115508,997.17834 L 0.40115508,997.17834 z"
     id="path3471"
     style="fill:#187098;fill-opacity:1;stroke-width:0.1;stroke-miterlimit:4;stroke-dasharray:none" />
  <path
     d="M 36.654695,1051.6456 C 36.688025,1051.5536 36.888231,1050.6503 37.099603,1049.6383 C 37.310975,1048.6263 37.53703,1047.7983 37.601948,1047.7983 C 37.666868,1047.7983 38.662426,1048.3637 39.814303,1049.0548 C 40.966181,1049.7459 42.510413,1050.6492 43.24593,1051.0621 L 44.583233,1051.8129 L 40.588667,1051.8129 C 37.449909,1051.8129 36.607082,1051.7769 36.654695,1051.6456 z"
     id="path3503"
     style="fill:#f0a848;fill-opacity:1;stroke-width:0.1;stroke-miterlimit:4;stroke-dasharray:none" />
  <path
     d="M 59.840512,1041.379 C 57.875372,1041.2576 56.515275,1040.9655 53.95243,1040.1143 C 50.333194,1038.9124 47.159428,1037.4356 44.679809,1035.7998 C 43.36442,1034.932 41.381561,1033.0233 40.958437,1032.2175 L 40.677348,1031.6822 L 45.000794,1012.546 C 47.378689,1002.021 49.326804,993.40086 49.329939,993.39005 C 49.333039,993.37925 49.922774,992.98041 50.640384,992.50377 C 52.981839,990.94855 55.248018,989.85474 58.234672,988.83826 C 64.45197,986.72225 69.695155,986.63337 75.029087,988.55358 C 77.491957,989.44021 79.582791,990.78542 81.523828,992.73218 C 85.498015,996.71809 87.596945,1002.4908 87.827872,1010.0703 C 87.891752,1012.1671 87.860342,1012.8339 87.622557,1014.4278 C 86.542798,1021.6653 82.757432,1028.9424 77.353833,1034.1688 C 73.038325,1038.3427 67.726281,1040.9829 62.961996,1041.3216 C 62.349195,1041.3656 61.727375,1041.4166 61.580173,1041.4354 C 61.432971,1041.4544 60.650123,1041.4254 59.840512,1041.3794 L 59.840512,1041.3794 L 59.840512,1041.379 z"
     id="path3579"
     style="fill:#f0a848;fill-opacity:1;stroke-width:0.1;stroke-miterlimit:4;stroke-dasharray:none" />
  <path
     d=""
     id="path3617"
     style="fill:#f0a848;fill-opacity:1;stroke-width:0.1;stroke-miterlimit:4;stroke-dasharray:none" />
  <path
     d=""
     id="path3643"
     style="fill:#f0a848;fill-opacity:1;stroke-width:0.1;stroke-miterlimit:4;stroke-dasharray:none" />
  <path
     d=""
     id="path3645"
     style="fill:#f0a848;fill-opacity:1;stroke-width:0.1;stroke-miterlimit:4;stroke-dasharray:none" />
  <path
     d=""
     id="path3647"
     style="fill:#f0a848;fill-opacity:1;stroke-width:0.1;stroke-miterlimit:4;stroke-dasharray:none" />
  <path
     d="M 78.08363,1050.3855 C 86.390718,1046.0143 93.627553,1040.1342 98.009303,1034.1953 C 99.910531,1031.6185 103.18712,1024.9441 104.41147,1021.1541 C 108.28485,1009.1642 108.23439,997.36528 104.269,987.83998 C 100.49143,978.76585 92.829432,972.43486 84.336307,971.36992 C 77.629601,970.52897 70.55215,972.36536 57.732393,978.27286 C 55.039338,979.51385 52.774234,980.46751 52.698828,980.3921 C 52.623418,980.3167 54.600346,971.78275 57.091993,961.42777 L 61.62226,942.60054 L 66.631337,942.60554 C 69.38633,942.60854 80.209897,942.64674 90.683708,942.69054 L 109.727,942.77024 L 109.727,997.51971 L 109.727,1052.2692 L 92.128958,1052.2592 L 74.530915,1052.2492 L 78.08363,1050.3798 L 78.08363,1050.3798 L 78.08363,1050.3855 z"
     id="path3649"
     style="fill:#f0a848;fill-opacity:1;stroke-width:0.1;stroke-miterlimit:4;stroke-dasharray:none" />
</g>
<path
   style="fill:none;stroke:#000000;stroke-width:0.1;stroke-linecap:butt;stroke-linejoin:miter;stroke-opacity:1;stroke-miterlimit:4;stroke-dasharray:none"
   d="m 9.9258829,110 63.7903411,0"
   id="path2673" />
<path
   style="fill:none;stroke:#000000;stroke-width:0.1;stroke-linecap:butt;stroke-linejoin:miter;stroke-opacity:1;stroke-miterlimit:4;stroke-dasharray:none"
   d="m 61.408129,0.1535627 c 0,0 0,0 -26.601366,-0.13234511 l 0,0"
   id="path3445" />
<path
   style="fill:#ffffff;fill-opacity:1;stroke-width:0.1;stroke-miterlimit:4;stroke-dasharray:none"
   d="m 10.344745,109.84992 c 0,-0.0996 24.45948,-108.6303162 24.619408,-109.24030945 l 0.121444,-0.46320787 13.069599,0.0407935 c 7.18828,0.0224364 13.079487,0.0522141 13.091571,0.0661726 0.01209,0.0139585 -2.073154,8.72045242 -4.633865,19.34776422 -2.560711,10.627312 -4.612551,19.341012 -4.559645,19.363776 0.05291,0.02276 1.722754,-0.731102 3.710772,-1.675258 10.571852,-5.020822 16.135154,-7.022226 21.812029,-7.846907 2.489802,-0.361693 6.336271,-0.297524 8.358728,0.139447 4.332685,0.936116 8.365858,3.215668 11.829823,6.686225 4.484121,4.492652 7.435721,10.623752 8.647391,17.962472 0.82779,5.013704 0.70832,11.332202 -0.31982,16.914446 -1.46176,7.936495 -5.17736,16.578825 -9.390199,21.84116 -4.674404,5.838887 -11.837539,11.295716 -20.70684,15.774326 l -2.308816,1.16585 -31.67079,0 c -17.418935,0 -31.67079,-0.0345 -31.67079,-0.0768 z m 34.674418,-0.30828 c 0,-0.0662 -0.521109,-0.40189 -1.15802,-0.74602 -0.636911,-0.34412 -2.342595,-1.33375 -3.790409,-2.19918 -1.447813,-0.86543 -2.658889,-1.54701 -2.691279,-1.51462 -0.06843,0.0684 -0.962368,4.16834 -0.962581,4.41473 -1.12e-4,0.12895 0.948254,0.16543 4.301073,0.16543 2.493117,0 4.301216,-0.0506 4.301216,-0.12034 z m 19.34232,-10.461787 c 5.156159,-0.889797 9.718674,-3.460626 14.013158,-7.895955 3.668071,-3.788376 6.441101,-8.383087 8.137502,-13.483264 1.575114,-4.73553 1.919055,-8.266354 1.308526,-13.433028 -1.395693,-11.811225 -8.09272,-18.721369 -18.983353,-19.587454 -5.527785,-0.4396 -12.908616,1.682273 -18.293807,5.259184 -0.710284,0.471779 -1.333468,0.925765 -1.384852,1.008856 -0.05138,0.08309 -2.039542,8.786594 -4.418129,19.341116 l -4.324703,19.190041 0.340369,0.595553 c 0.517067,0.904724 2.458202,2.758053 3.865933,3.691058 3.437343,2.278178 10.279237,4.978412 13.750418,5.426764 1.662723,0.214764 4.388006,0.163402 5.988938,-0.112871 z"
   id="path3447" />
</svg>
