<?xml version="1.0" encoding="UTF-8" standalone="no"?>
<!-- Created with Inkscape (http://www.inkscape.org/) -->
<svg
   xmlns:svg="http://www.w3.org/2000/svg"
   xmlns="http://www.w3.org/2000/svg"
   version="1.0"
   width="744.09448"
   height="1052.3622"
   id="svg2">
  <defs
     id="defs4" />
  <g
     id="layer1">
    <path
       d="m 8.4,990.96218 0,0 z"
       id="path2613"
       style="fill:none;stroke:#000000;stroke-width:1px;stroke-linecap:butt;stroke-linejoin:miter;stroke-opacity:1" />
    <path
       d="M 10.17039,1052.2955 34.937762,942.428 0.0622378,942.425 l 0.19816597,0 -0.001193,109.8748 9.91117923,0 z"
       id="path2623"
       style="fill:none;stroke:#000000;stroke-width:0.10549579;stroke-linecap:butt;stroke-linejoin:miter;stroke-miterlimit:4;stroke-opacity:1;stroke-dasharray:none" />
    <path
       d="m 73.248184,1052.5622 36.642176,-0.1204"
       id="path3397"
       style="fill:none;stroke:#000000;stroke-width:0.1;stroke-linecap:butt;stroke-linejoin:miter;stroke-miterlimit:4;stroke-opacity:1;stroke-dasharray:none" />
    <path
       d="m 52.104713,981.16374 9.331958,-38.78691 48.396149,0.0558 0.0245,95.82217 -0.0167,13.7754 0.004,0.4565"
       id="path3399"
       style="fill:none;stroke:#000000;stroke-width:0.09199466;stroke-linecap:butt;stroke-linejoin:miter;stroke-miterlimit:4;stroke-opacity:1;stroke-dasharray:none" />
    <path
       d="m 49.2,993.36218 -8.6486,38.39442"
       id="path3403"
       style="fill:none;stroke:#000000;stroke-width:0.1;stroke-linecap:butt;stroke-linejoin:miter;stroke-miterlimit:4;stroke-opacity:1;stroke-dasharray:none" />
    <path
       d="M 37.442577,1047.4642 36.5,1051.8622"
       id="path3405"
       style="fill:none;stroke:#000000;stroke-width:0.1;stroke-linecap:butt;stroke-linejoin:miter;stroke-miterlimit:4;stroke-opacity:1;stroke-dasharray:none" />
    <path
       d="m 49.19158,993.35664 c 7,-5.4 15.75982,-6.21337 15.75982,-6.21337 0,0 21.996548,-3.16736 23.0486,22.81893 0.63317,15.6397 -15.143809,36.463 -33.2,30.6 -13.10997,-4.2569 -14.24627,-8.9004 -14.24627,-8.9004"
       id="path3433"
       style="fill:none;stroke:#000000;stroke-width:0.1;stroke-linecap:butt;stroke-linejoin:miter;stroke-miterlimit:4;stroke-opacity:1;stroke-dasharray:none" />
    <path
       d="m 52.029675,981.23788 c 17.8,-8.6 31.397703,-14.89569 43.970325,-4.4757 13.99169,11.59609 14.31326,36.04642 3.6,54.60002 -7.697454,13.3307 -26.4,21.2 -26.4,21.2"
       id="path3437"
       style="fill:none;stroke:#000000;stroke-width:0.1;stroke-linecap:butt;stroke-linejoin:miter;stroke-miterlimit:4;stroke-opacity:1;stroke-dasharray:none" />
    <path
       d="m 37.4,1047.4609 c 7.6,4.6 7.6,4.4 7.6,4.4 l -8.486134,0"
       id="path3439"
       style="fill:none;stroke:#000000;stroke-width:0.1;stroke-linecap:butt;stroke-linejoin:miter;stroke-miterlimit:4;stroke-opacity:1;stroke-dasharray:none" />
    <path
       d="m 0.40115508,997.23392 0,-54.67479 17.12058192,0 c 16.101286,0 17.110115,0.0424 16.944778,0.71138 -0.09669,0.39126 -5.644428,24.99492 -12.328303,54.67479 l -12.152498,53.9634 -4.7922793,0 -4.79227962,0 0,-54.67478 z"
       id="path3465"
       style="fill:#124662;fill-opacity:1;stroke-width:0.1;stroke-miterlimit:4;stroke-dasharray:none" />
    <path
       d="m 0.40115508,997.17834 0,-54.73039 16.76829292,0.29856 c 9.222561,0.1642 16.836398,0.36403 16.919638,0.44406 0.125232,0.1204 -23.533197,105.77413 -24.1853362,108.00673 -0.1822374,0.6239 -0.7792529,0.7114 -4.8551915,0.7114 l -4.64740322,0 0,-54.73036 z"
       id="path3471"
       style="fill:#187098;fill-opacity:1;stroke-width:0.1;stroke-miterlimit:4;stroke-dasharray:none" />
    <path
       d="m 36.654695,1051.6456 c 0.03333,-0.092 0.233536,-0.9953 0.444908,-2.0073 0.211372,-1.012 0.437427,-1.84 0.502345,-1.84 0.06492,0 1.060478,0.5654 2.212355,1.2565 1.151878,0.6911 2.69611,1.5944 3.431627,2.0073 l 1.337303,0.7508 -3.994566,0 c -3.138758,0 -3.981585,-0.036 -3.933972,-0.1673 z"
       id="path3503"
       style="fill:#f0a848;fill-opacity:1;stroke-width:0.1;stroke-miterlimit:4;stroke-dasharray:none" />
    <path
       d="m 59.840512,1041.379 c -1.96514,-0.1214 -3.325237,-0.4135 -5.888082,-1.2647 -3.619236,-1.2019 -6.793002,-2.6787 -9.272621,-4.3145 -1.315389,-0.8678 -3.298248,-2.7765 -3.721372,-3.5823 l -0.281089,-0.5353 4.323446,-19.1362 c 2.377895,-10.525 4.32601,-19.14514 4.329145,-19.15595 0.0031,-0.0108 0.592835,-0.40964 1.310445,-0.88628 2.341455,-1.55522 4.607634,-2.64903 7.594288,-3.66551 6.217298,-2.11601 11.460483,-2.20489 16.794415,-0.28468 2.46287,0.88663 4.553704,2.23184 6.494741,4.1786 3.974187,3.98591 6.073117,9.75862 6.304044,17.33812 0.06388,2.0968 0.03247,2.7636 -0.205315,4.3575 -1.079759,7.2375 -4.865125,14.5146 -10.268724,19.741 -4.315508,4.1739 -9.627552,6.8141 -14.391837,7.1528 -0.612801,0.044 -1.234621,0.095 -1.381823,0.1138 -0.147202,0.019 -0.93005,-0.01 -1.739661,-0.056 l 0,0 z"
       id="path3579"
       style="fill:#f0a848;fill-opacity:1;stroke-width:0.1;stroke-miterlimit:4;stroke-dasharray:none" />
    <path
       d=""
       id="path3617"
       style="fill:#f0a848;fill-opacity:1;stroke-width:0.1;stroke-miterlimit:4;stroke-dasharray:none" />
    <path
       d=""
       id="path3643"
       style="fill:#f0a848;fill-opacity:1;stroke-width:0.1;stroke-miterlimit:4;stroke-dasharray:none" />
    <path
       d=""
       id="path3645"
       style="fill:#f0a848;fill-opacity:1;stroke-width:0.1;stroke-miterlimit:4;stroke-dasharray:none" />
    <path
       d=""
       id="path3647"
       style="fill:#f0a848;fill-opacity:1;stroke-width:0.1;stroke-miterlimit:4;stroke-dasharray:none" />
    <path
       d="m 78.08363,1050.3855 c 8.307088,-4.3712 15.543923,-10.2513 19.925673,-16.1902 1.901228,-2.5768 5.177817,-9.2512 6.402167,-13.0412 3.87338,-11.9899 3.82292,-23.78882 -0.14247,-33.31412 -3.77757,-9.07413 -11.439568,-15.40512 -19.932693,-16.47006 -6.706706,-0.84095 -13.784157,0.99544 -26.603914,6.90294 -2.693055,1.24099 -4.958159,2.19465 -5.033565,2.11924 -0.07541,-0.0754 1.901518,-8.60935 4.393165,-18.96433 l 4.530267,-18.82723 5.009077,0.005 c 2.754993,0.003 13.57856,0.0412 24.052371,0.085 l 19.043292,0.0797 0,54.74947 0,54.74949 -17.598042,-0.01 -17.598043,-0.01 3.552715,-1.8694 0,0 z"
       id="path3649"
       style="fill:#f0a848;fill-opacity:1;stroke-width:0.1;stroke-miterlimit:4;stroke-dasharray:none" />
  </g>
</svg>
